<?xml version="1.0" encoding="UTF-8"?>
<svg width="80px" height="80px" viewBox="0 0 80 80" version="1.1" xmlns="http://www.w3.org/2000/svg" xmlns:xlink="http://www.w3.org/1999/xlink">
    <!-- Generator: Sketch 42 (36781) - http://www.bohemiancoding.com/sketch -->
    <title>box</title>
    <desc>Created with Sketch.</desc>
    <defs></defs>
    <g id="Page-1" stroke="none" stroke-width="1" fill="none" fill-rule="evenodd">
        <g id="02-PRODUITS" transform="translate(-800.000000, -1129.000000)" fill-rule="nonzero" fill="#646464">
            <g id="INFORMATION" transform="translate(740.000000, 1109.000000)">
                <g id="Livraison">
                    <g id="box" transform="translate(60.000000, 20.000000)">
                        <g id="Capa_1">
                            <g id="Group">
                                <path d="M66.072,0 L13.928,0 L0,22.284 L0,80 L80,80 L80,22.284 L66.072,0 Z M76.2613333,21.3333333 L41.3333333,21.3333333 L41.3333333,2.66666667 L64.5946667,2.66666667 L76.2613333,21.3333333 Z M15.4053333,2.66666667 L38.6666667,2.66666667 L38.6666667,21.3333333 L3.73866667,21.3333333 L15.4053333,2.66666667 Z M2.66666667,77.3333333 L2.66666667,24 L77.3333333,24 L77.3333333,77.3333333 L2.66666667,77.3333333 Z" id="Shape"></path>
                                <path d="M48,30.6666667 L32,30.6666667 C29.7946667,30.6666667 28,32.4613333 28,34.6666667 C28,36.872 29.7946667,38.6666667 32,38.6666667 L48,38.6666667 C50.2053333,38.6666667 52,36.872 52,34.6666667 C52,32.4613333 50.2053333,30.6666667 48,30.6666667 Z M48,36 L32,36 C31.2653333,36 30.6666667,35.4026667 30.6666667,34.6666667 C30.6666667,33.9306667 31.2653333,33.3333333 32,33.3333333 L48,33.3333333 C48.7346667,33.3333333 49.3333333,33.9306667 49.3333333,34.6666667 C49.3333333,35.4026667 48.7346667,36 48,36 Z" id="Shape"></path>
                                <path d="M50.6666667,69.3333333 L29.3333333,69.3333333 C28.5973333,69.3333333 28,69.9293333 28,70.6666667 C28,71.404 28.5973333,72 29.3333333,72 L50.6666667,72 C51.4026667,72 52,71.404 52,70.6666667 C52,69.9293333 51.4026667,69.3333333 50.6666667,69.3333333 Z" id="Shape"></path>
                                <path d="M33.3333333,66.6666667 C34.0693333,66.6666667 34.6666667,66.0706667 34.6666667,65.3333333 L34.6666667,56.552 L36.3906667,58.276 C36.6506667,58.536 36.992,58.6666667 37.3333333,58.6666667 C37.6746667,58.6666667 38.016,58.536 38.276,58.276 C38.7973333,57.7546667 38.7973333,56.912 38.276,56.3906667 L34.2773333,52.392 C34.1546667,52.268 34.0066667,52.1706667 33.8426667,52.1026667 C33.5173333,51.968 33.1493333,51.968 32.824,52.1026667 C32.66,52.1706667 32.5133333,52.268 32.3893333,52.392 L28.3906667,56.3906667 C27.8693333,56.912 27.8693333,57.7546667 28.3906667,58.276 C28.6506667,58.536 28.992,58.6666667 29.3333333,58.6666667 C29.6746667,58.6666667 30.016,58.536 30.276,58.276 L32,56.552 L32,65.3333333 C32,66.0706667 32.5973333,66.6666667 33.3333333,66.6666667 Z" id="Shape"></path>
                                <path d="M47.6106667,52.392 C47.488,52.268 47.34,52.1706667 47.176,52.1026667 C46.8506667,51.968 46.4826667,51.968 46.1573333,52.1026667 C45.9933333,52.1706667 45.8466667,52.268 45.7226667,52.392 L41.724,56.3906667 C41.2026667,56.912 41.2026667,57.7546667 41.724,58.276 C41.984,58.536 42.3253333,58.6666667 42.6666667,58.6666667 C43.008,58.6666667 43.3493333,58.536 43.6093333,58.276 L45.3333333,56.552 L45.3333333,65.3333333 C45.3333333,66.0706667 45.9306667,66.6666667 46.6666667,66.6666667 C47.4026667,66.6666667 48,66.0706667 48,65.3333333 L48,56.552 L49.724,58.276 C49.984,58.536 50.3253333,58.6666667 50.6666667,58.6666667 C51.008,58.6666667 51.3493333,58.536 51.6093333,58.276 C52.1306667,57.7546667 52.1306667,56.912 51.6093333,56.3906667 L47.6106667,52.392 Z" id="Shape"></path>
                            </g>
                        </g>
                    </g>
                </g>
            </g>
        </g>
    </g>
</svg>