<?xml version="1.0" encoding="UTF-8"?>
<svg width="35px" height="35px" viewBox="0 0 35 35" version="1.1" xmlns="http://www.w3.org/2000/svg" xmlns:xlink="http://www.w3.org/1999/xlink">
    <!-- Generator: Sketch 42 (36781) - http://www.bohemiancoding.com/sketch -->
    <title>chat</title>
    <desc>Created with Sketch.</desc>
    <defs></defs>
    <g id="Page-1" stroke="none" stroke-width="1" fill="none" fill-rule="evenodd">
        <g id="02-PRODUITS" transform="translate(-152.000000, -1476.000000)" fill-rule="nonzero" fill="#EB5160">
            <g id="AVIS" transform="translate(152.000000, 1476.000000)">
                <g id="avis1">
                    <g id="chat">
                        <g id="Capa_1">
                            <path d="M34.97025,34.2323333 L32.144,25.7541667 C33.6315,23.1595 34.4166667,20.21075 34.4166667,17.2083333 C34.4166667,7.71925 26.6974167,0 17.2083333,0 C7.71925,0 0,7.71925 0,17.2083333 C0,26.6974167 7.71925,34.4166667 17.2083333,34.4166667 C19.915,34.4166667 22.60825,33.7703333 25.0121667,32.5453333 L34.2679167,34.9813333 C34.3175,34.9935833 34.3670833,35 34.4166667,35 C34.5753333,35 34.7305,34.9346667 34.8419167,34.8156667 C34.9883333,34.6593333 35.0379167,34.4353333 34.97025,34.2323333 Z M9.33333333,12.25875 L17.5,12.25875 C17.822,12.25875 18.0833333,12.5200833 18.0833333,12.8420833 C18.0833333,13.1640833 17.822,13.4254167 17.5,13.4254167 L9.33333333,13.4254167 C9.01133333,13.4254167 8.75,13.1640833 8.75,12.8420833 C8.75,12.5200833 9.01133333,12.25875 9.33333333,12.25875 Z M25.0833333,22.75875 L9.33333333,22.75875 C9.01133333,22.75875 8.75,22.4974167 8.75,22.1754167 C8.75,21.8534167 9.01133333,21.5920833 9.33333333,21.5920833 L25.0833333,21.5920833 C25.4053333,21.5920833 25.6666667,21.8534167 25.6666667,22.1754167 C25.6666667,22.4974167 25.4053333,22.75875 25.0833333,22.75875 Z M25.0833333,18.0920833 L9.33333333,18.0920833 C9.01133333,18.0920833 8.75,17.83075 8.75,17.50875 C8.75,17.18675 9.01133333,16.9254167 9.33333333,16.9254167 L25.0833333,16.9254167 C25.4053333,16.9254167 25.6666667,17.18675 25.6666667,17.50875 C25.6666667,17.83075 25.4053333,18.0920833 25.0833333,18.0920833 Z" id="Shape"></path>
                        </g>
                    </g>
                </g>
            </g>
        </g>
    </g>
</svg>