<?xml version="1.0" encoding="UTF-8"?>
<svg width="80px" height="80px" viewBox="0 0 80 80" version="1.1" xmlns="http://www.w3.org/2000/svg" xmlns:xlink="http://www.w3.org/1999/xlink">
    <!-- Generator: Sketch 42 (36781) - http://www.bohemiancoding.com/sketch -->
    <title>idea</title>
    <desc>Created with Sketch.</desc>
    <defs></defs>
    <g id="Page-1" stroke="none" stroke-width="1" fill="none" fill-rule="evenodd">
        <g id="02-PRODUITS" transform="translate(-1200.000000, -1129.000000)" fill-rule="nonzero" fill="#646464">
            <g id="INFORMATION" transform="translate(740.000000, 1109.000000)">
                <g id="Idée" transform="translate(400.000000, 0.000000)">
                    <g id="idea" transform="translate(60.000000, 20.000000)">
                        <g id="Layer_1">
                            <path d="M8.9559375,25.9617188 L1.9915625,25.9617188 C0.92265625,25.9617188 0.05625,26.828125 0.05625,27.8970313 C0.05625,28.9659375 0.92265625,29.8323438 1.9915625,29.8323438 L8.95578125,29.8323438 C10.0248437,29.8323438 10.89125,28.9659375 10.89125,27.8970313 C10.89125,26.828125 10.0248437,25.9617188 8.9559375,25.9617188 Z" id="Shape"></path>
                            <path d="M78.0079687,25.9617188 L71.0435937,25.9617188 C69.9748437,25.9617188 69.1082812,26.828125 69.1082812,27.8970313 C69.1082812,28.9659375 69.9748437,29.8323438 71.0435937,29.8323438 L78.0079687,29.8323438 C79.0767187,29.8323438 79.9432812,28.9659375 79.9432812,27.8970313 C79.9432812,26.828125 79.0767187,25.9617188 78.0079687,25.9617188 Z" id="Shape"></path>
                            <path d="M16.9292188,50.9673438 C16.1734375,50.2115625 14.948125,50.2115625 14.1921875,50.9673438 L9.1265625,56.0329688 C8.37078125,56.78875 8.37078125,58.0140625 9.1265625,58.77 C9.50453125,59.1479688 9.99984375,59.336875 10.495,59.336875 C10.9901563,59.336875 11.485625,59.1479688 11.8634375,58.77 L16.9292188,53.704375 C17.685,52.94875 17.685,51.7232813 16.9292188,50.9673438 Z" id="Shape"></path>
                            <path d="M67.33,0.566875 C66.5740625,-0.18890625 65.3490625,-0.18890625 64.5929688,0.566875 L59.6660938,5.49375 C58.9103125,6.24953125 58.9103125,7.475 59.6660938,8.230625 C60.0442188,8.60828125 60.5395313,8.79734375 61.0346875,8.79734375 C61.5301563,8.79734375 62.0251563,8.60828125 62.403125,8.23046875 L67.3298438,3.30375 C68.085625,2.54796875 68.085625,1.3225 67.33,0.566875 Z" id="Shape"></path>
                            <path d="M20.3307813,5.4909375 L15.4065625,0.566875 C14.6507813,-0.18859375 13.4253125,-0.18859375 12.6695313,0.566875 C11.91375,1.32265625 11.91375,2.548125 12.6695313,3.30390625 L17.59375,8.228125 C17.9717188,8.6059375 18.4670313,8.795 18.9621875,8.795 C19.4573438,8.795 19.9528125,8.6059375 20.330625,8.228125 C21.0864063,7.47234375 21.0864063,6.246875 20.3307813,5.4909375 Z" id="Shape"></path>
                            <path d="M70.8726562,56.0335937 L65.8257812,50.98625 C65.0698437,50.2304687 63.8448437,50.2304687 63.08875,50.9864062 C62.3329687,51.7421875 62.3329687,52.9676562 63.08875,53.7232812 L68.1357812,58.7703125 C68.51375,59.1482812 69.0090625,59.3371875 69.5042187,59.3371875 C69.9996875,59.3371875 70.4946875,59.148125 70.8726562,58.7703125 C71.6284375,58.0146875 71.6284375,56.7892187 70.8726562,56.0335937 Z" id="Shape"></path>
                            <path d="M39.9998437,5.255625 C26.6173437,5.255625 15.73,16.6439063 15.73,30.6421875 C15.73,37.15 18.0610937,44.155 22.1257812,49.8609375 C25.2475,54.2429688 26.8973437,59.1185938 26.8973437,63.9609375 L26.8973437,76.1289063 C26.8973437,78.263125 28.63375,79.9995313 30.7679687,79.9995313 L49.231875,79.9995313 C51.3660937,79.9995313 53.1025,78.263125 53.1025,76.1289063 L53.1025,63.9609375 C53.1025,59.11875 54.7523437,54.2429688 57.87375,49.8609375 C61.9384375,44.1551563 64.2696875,37.15 64.2696875,30.6421875 C64.269375,16.6439063 53.3820312,5.255625 39.9998437,5.255625 Z M49.2315625,76.1292188 L30.7676563,76.1292188 L30.7676563,73.5978125 L39.9996875,73.5978125 C41.0685938,73.5978125 41.9351563,72.7314063 41.9351563,71.6625 C41.9351563,70.5935938 41.0685938,69.7271875 39.9996875,69.7271875 L30.7676563,69.7271875 L30.7676563,67.1959375 L49.2320313,67.1959375 L49.2342188,76.1289063 C49.2340625,76.1292188 49.2332813,76.1292188 49.2315625,76.1292188 Z M37.2857812,40.0220313 L34.6976562,34.4928125 L45.3017187,34.4928125 L42.7139062,40.0220313 C42.6120312,40.2396875 42.5515625,40.4745313 42.5354687,40.7142188 L41.0346875,63.3253125 L38.9648437,63.3253125 L37.4640625,40.7142188 C37.448125,40.4745313 37.3875,40.2396875 37.2857812,40.0220313 Z M54.7210937,47.6153125 C51.264375,52.4678125 49.3760937,57.8860938 49.2395312,63.3253125 L44.9139062,63.3253125 L46.3734375,41.3332813 L50.0970312,33.3778125 C50.3776562,32.7784375 50.3325,32.0770313 49.9771875,31.5185938 C49.6220312,30.9603125 49.0060937,30.6220313 48.3442187,30.6220313 L31.655,30.6220313 C30.993125,30.6220313 30.3773437,30.9603125 30.0220312,31.5185938 C29.666875,32.076875 29.6215625,32.7782813 29.9021875,33.3776563 L33.6259375,41.333125 L35.0854687,63.3251563 L30.7595312,63.3251563 C30.6229687,57.8857813 28.7348437,52.4676563 25.2779687,47.6151563 C21.7226562,42.6242188 19.6001562,36.2790625 19.6001562,30.6420313 C19.6001562,18.7779688 28.75125,9.12609375 39.999375,9.12609375 C51.2475,9.12609375 60.3985937,18.7779688 60.3985937,30.6420313 C60.3989062,36.279375 58.2764062,42.6245313 54.7210937,47.6153125 Z" id="Shape"></path>
                        </g>
                    </g>
                </g>
            </g>
        </g>
    </g>
</svg>