<?xml version="1.0" encoding="utf-8"?>
<!-- Generator: Adobe Illustrator 21.0.2, SVG Export Plug-In . SVG Version: 6.00 Build 0)  -->
<svg version="1.1" id="Capa_1" xmlns="http://www.w3.org/2000/svg" xmlns:xlink="http://www.w3.org/1999/xlink" x="0px" y="0px"
	 viewBox="0 0 512 512" style="enable-background:new 0 0 512 512;" xml:space="preserve">
<style type="text/css">
	.st0{fill:#646464;}
</style>
<g>
	<path class="st0" d="M459.1,186.7l-1.5-4L421,124.1c-2.3-6.5-6.8-9.8-13.3-9.8h-49.4v-9.8c0-30.3-9.5-55.1-28.8-74.9
		C310.3,9.8,285.9,0,256.4,0c-29.8,0-54.3,9.8-73.7,29.6c-19.2,19.6-29.1,44.6-29.1,74.9v9.8h-49.4c-5.5,0-9.5,2.5-11.8,7.3l-1,1
		l-37.3,60.1c-1.3,2.8-2,4.8-2,6c-1.5,3.5-2.3,7.3-2.3,11.3v281.9c0,8.5,2.9,15.6,8.8,21.3c6,5.8,13.3,8.8,21.6,8.8h351.6
		c17,0,30.3-13,30.3-30.1V200C462.1,195.2,461.1,190.7,459.1,186.7z M358.4,142.1h41.1l17,27.6h-58.1L358.4,142.1L358.4,142.1z
		 M181.4,104.5c0-22.8,7-41.2,20.8-55.4c14-14.3,32.1-21.6,54.1-21.6c21.8,0,39.8,7.3,53.6,21.6c13.8,14.3,20.8,32.6,20.8,55.4v9.8
		H181.4V104.5z M181.4,142.1h149.4v27.6H181.4V142.1z M112,142.1h41.6v27.6H95.2L112,142.1z M434.3,481.9c0,1.8-0.8,2.5-2.5,2.5
		H80.2c-1.8,0-2.5-0.7-2.5-2.5V200c0-1.8,0.8-2.5,2.5-2.5h351.6c1.8,0,2.5,0.8,2.5,2.5L434.3,481.9L434.3,481.9z"/>
</g>
</svg>
