<svg xmlns="http://www.w3.org/2000/svg" viewBox="0 0 269.23 334.37"><defs><style>.cls-1{fill:#fff;}</style></defs><title>shopping-bag</title><g id="Calque_2" data-name="Calque 2"><g id="Calque_1-2" data-name="Calque 1"><path class="cls-1" d="M267.27,121.93l-1-2.62L242.39,81c-1.47-4.26-4.42-6.38-8.67-6.38H201.47V68.25c0-19.8-6.22-36-18.82-48.94S154.17,0,134.86,0C115.39,0,99.39,6.42,86.74,19.31s-19,29.13-19,48.94v6.38H35.52a7.94,7.94,0,0,0-7.69,4.74l-.65.66L2.78,119.31a11.85,11.85,0,0,0-1.31,3.93A18.53,18.53,0,0,0,0,130.61V314.73a18.68,18.68,0,0,0,5.73,13.91,19.56,19.56,0,0,0,14.07,5.73H249.43a19.43,19.43,0,0,0,19.8-19.64V130.61A19.3,19.3,0,0,0,267.27,121.93ZM201.47,92.8h26.84l11.13,18h-38v-18ZM85.92,68.25c0-14.89,4.54-26.88,13.59-36.17S120.46,18,134.86,18c14.24,0,26,4.74,35,14.07s13.59,21.28,13.59,36.17v6.38H85.92Zm0,24.55h97.55v18H85.92Zm-45.33,0H67.76v18H29.63ZM251.06,314.73c0,1.15-.49,1.64-1.64,1.64H19.8c-1.15,0-1.64-.49-1.64-1.64V130.61c0-1.15.49-1.64,1.64-1.64H249.43c1.15,0,1.64.49,1.64,1.64V314.73Z"/></g></g></svg>