<?xml version="1.0" encoding="UTF-8"?>
<svg width="100px" height="100px" viewBox="0 0 100 100" version="1.1" xmlns="http://www.w3.org/2000/svg" xmlns:xlink="http://www.w3.org/1999/xlink">
    <!-- Generator: Sketch 42 (36781) - http://www.bohemiancoding.com/sketch -->
    <title>snapchat</title>
    <desc>Created with Sketch.</desc>
    <defs></defs>
    <g id="Page-1" stroke="none" stroke-width="1" fill="none" fill-rule="evenodd">
        <g id="01-HOMEPAGE" transform="translate(-880.000000, -2286.000000)" fill-rule="nonzero">
            <g id="FOOTER" transform="translate(0.000000, 2129.000000)">
                <g id="RESEAUX" transform="translate(459.000000, 115.000000)">
                    <g id="snapchat" transform="translate(421.000000, 42.000000)">
                        <g id="Layer_1">
                            <circle id="Oval" fill="#FFC91B" cx="50" cy="50" r="50"></circle>
                            <path d="M49.9744141,25.5023437 C57.6572266,25.5046875 64.05625,31.9003906 64.0650391,39.6013672 C64.0673828,41.4046875 64.1230469,43.065625 64.225,44.5957031 C64.2876953,45.5398437 65.0730469,46.2390625 65.9732422,46.2390625 C66.10625,46.2390625 66.2412109,46.2242187 66.3765625,46.1925781 L68.7832031,45.6279297 C68.8859375,45.6041016 68.9886719,45.5929687 69.0898438,45.5929687 C69.7009766,45.5929687 70.2636719,46.0105469 70.4009766,46.6289062 C70.5949219,47.5033203 70.1052734,48.3865234 69.2582031,48.6828125 L65.6054688,50.1582031 C64.6828125,50.5298828 64.1876953,51.5335937 64.4478516,52.4939453 C67.3785156,63.3292969 75.5642578,62.2019531 75.5642578,63.6140625 C75.5642578,65.3865234 69.3941406,65.6369141 68.8369141,66.1941406 C68.2792969,66.7517578 68.8123047,69.4574219 67.5667969,69.98125 C67.3324219,70.0802734 66.9988281,70.1146484 66.5917969,70.1146484 C65.6537109,70.1146484 64.3265625,69.9314453 62.9285156,69.9314453 C61.715625,69.9314453 60.4486328,70.0695312 59.3349609,70.5835937 C56.3804688,71.9488281 53.5318359,74.4984375 50.0001953,74.4984375 C46.4691406,74.4984375 43.6201172,71.9490234 40.6654297,70.5835937 C39.5513672,70.0691406 38.2849609,69.9314453 37.071875,69.9314453 C35.6736328,69.9314453 34.3462891,70.1146484 33.4082031,70.1146484 C33.0017578,70.1146484 32.6677734,70.0798828 32.4332031,69.98125 C31.1876953,69.4574219 31.7214844,66.7515625 31.1630859,66.1941406 C30.6058594,65.6369141 24.4357422,65.3861328 24.4357422,63.6140625 C24.4357422,62.2023437 32.6216797,63.3289062 35.5521484,52.4939453 C35.8125,51.5335937 35.3171875,50.5298828 34.3945313,50.1576172 L30.7410156,48.6828125 C29.8941406,48.3861328 29.4042969,47.5029297 29.5990234,46.6289062 C29.7361328,46.0099609 30.2990234,45.5921875 30.9101563,45.5929687 C31.0115234,45.5929687 31.1142578,45.6044922 31.2167969,45.6279297 L33.6234375,46.1925781 C33.7587891,46.2242187 33.89375,46.2390625 34.0261719,46.2390625 C34.9267578,46.2390625 35.7121094,45.5396484 35.7746094,44.5957031 C35.8765625,43.0658203 35.9322266,41.4048828 35.9345703,39.6013672 C35.94375,31.9003906 42.2921875,25.5054687 49.9744141,25.5023437 L49.9744141,25.5023437 Z M49.9753906,22.446875 L49.9730469,22.446875 C47.6800781,22.4474609 45.4464844,22.9082031 43.3339844,23.8166016 C41.3066406,24.6878906 39.4818359,25.9310547 37.9107422,27.5099609 C36.3419922,29.0876953 35.1074219,30.91875 34.240625,32.953125 C33.3400391,35.0679687 32.8816406,37.3033203 32.8787109,39.5976562 C32.8773438,40.7242187 32.8541016,41.8167969 32.809375,42.8636719 L31.9136719,42.6535156 C31.5853516,42.5763672 31.2476563,42.5376953 30.9099609,42.5371094 C29.9355469,42.5371094 28.9746094,42.8664062 28.2035156,43.4644531 C27.3992188,44.0886719 26.8351563,44.9771484 26.615625,45.9671875 C26.0927734,48.3226562 27.3929688,50.7001953 29.646875,51.5369141 L32.3279297,52.61875 C30.5525391,58.0679687 27.2787109,59.1121094 25.075,59.815625 C24.4894531,60.0025391 23.9847656,60.1638672 23.5037109,60.4021484 C21.5869141,61.3533203 21.3798828,62.9654297 21.3798828,63.6138672 C21.3798828,64.85625 21.9677734,65.9900391 23.0357422,66.8064453 C23.5673828,67.2128906 24.2263672,67.5482422 25.0498047,67.8316406 C26.1716797,68.2177734 27.4726563,68.4628906 28.5296875,68.6591797 C28.5808594,69.0511719 28.6556641,69.4720703 28.7822266,69.8962891 C29.3060547,71.6572266 30.4125,72.4455078 31.2482422,72.796875 C32.0412109,73.1304688 32.8607422,73.1693359 33.4078125,73.1693359 C33.9431641,73.1693359 34.5087891,73.1269531 35.1082031,73.0828125 C35.7509766,73.0349609 36.415625,72.9861328 37.0714844,72.9861328 C38.0876953,72.9861328 38.8439453,73.1074219 39.3839844,73.3568359 C40.125,73.6992188 40.9109375,74.1609375 41.7435547,74.6494141 C44.0599609,76.0107422 46.6863281,77.5527344 49.9998047,77.5527344 C53.3128906,77.5527344 55.9388672,76.0107422 58.2560547,74.6494141 C59.0884766,74.1609375 59.8746094,73.6992188 60.615625,73.3568359 C61.1556641,73.1074219 61.9119141,72.9861328 62.928125,72.9861328 C63.5839844,72.9861328 64.2486328,73.0353516 64.8910156,73.0828125 C65.4900391,73.1269531 66.0566406,73.1693359 66.5916016,73.1693359 C67.1386719,73.1693359 67.9582031,73.1306641 68.7507813,72.796875 C69.5867188,72.4453125 70.6931641,71.6572266 71.2171875,69.8962891 C71.3431641,69.4720703 71.4181641,69.0511719 71.4697266,68.6591797 C72.5265625,68.4628906 73.8277344,68.2173828 74.9496094,67.8316406 C75.7732422,67.5480469 76.4314453,67.2126953 76.9636719,66.8064453 C78.03125,65.9900391 78.6195313,64.85625 78.6195313,63.6138672 C78.6195313,62.9650391 78.4125,61.3533203 76.4957031,60.4021484 C76.0146484,60.1634766 75.5091797,60.0025391 74.9244141,59.815625 C72.7201172,59.1125 69.4462891,58.0685547 67.6708984,52.61875 L70.3519531,51.5369141 C72.6058594,50.7009766 73.9068359,48.3228516 73.3839844,45.9671875 C73.1644531,44.9773437 72.5998047,44.0884766 71.7960938,43.4644531 C71.025,42.8664062 70.0636719,42.5371094 69.0896484,42.5371094 C68.7525391,42.5371094 68.4142578,42.5765625 68.0859375,42.6535156 L67.1900391,42.8636719 C67.1453125,41.8167969 67.1212891,40.7242187 67.1203125,39.5976562 C67.1179688,37.3017578 66.6560547,35.0640625 65.7478516,32.9460937 C64.8765625,30.9126953 63.6347656,29.0820312 62.0580078,27.5046875 C60.4804688,25.9275391 58.6509766,24.6861328 56.6189453,23.8154297 C54.503125,22.9083984 52.2677734,22.4474609 49.9753906,22.446875 L49.9753906,22.446875 Z" id="Shape" fill="#FFFFFF"></path>
                            <path d="M76.4957031,60.4019531 C76.0146484,60.1632812 75.5091797,60.0019531 74.9242188,59.8154297 C72.7199219,59.1123047 69.4460938,58.0683594 67.6707031,52.6185547 L70.3517578,51.5367187 C72.6056641,50.7007812 73.9066406,48.3226562 73.3837891,45.9669922 C73.1642578,44.9771484 72.5996094,44.0882812 71.7958984,43.4642578 C71.0248047,42.8662109 70.0634766,42.5369141 69.0894531,42.5369141 C68.7523438,42.5369141 68.4140625,42.5763672 68.0857422,42.6533203 L67.1898438,42.8634766 C67.1451172,41.8166016 67.1210938,40.7240234 67.1201172,39.5974609 C67.1177734,37.3015625 66.6558594,35.0638672 65.7476563,32.9458984 C64.8763672,30.9125 63.6345703,29.0818359 62.0580078,27.5044922 C60.4804688,25.9273437 58.6509766,24.6859375 56.6189453,23.8152344 C54.5027344,22.9082031 52.2673828,22.4476562 49.9751953,22.446875 L49.9728516,22.446875 C49.8691406,22.446875 49.7664063,22.4529297 49.6630859,22.4546875 L49.6630859,25.5101562 C49.7667969,25.5078125 49.8697266,25.5021484 49.9738281,25.5021484 C57.6566406,25.5044922 64.0556641,31.9001953 64.0644531,39.6011719 C64.0667969,41.4044922 64.1224609,43.0654297 64.2244141,44.5955078 C64.2871094,45.5396484 65.0724609,46.2388672 65.9726563,46.2388672 C66.1056641,46.2388672 66.240625,46.2240234 66.3759766,46.1923828 L68.7826172,45.6277344 C68.8853516,45.6039062 68.9880859,45.5927734 69.0892578,45.5927734 C69.7003906,45.5927734 70.2630859,46.0103516 70.4003906,46.6287109 C70.5943359,47.503125 70.1046875,48.3863281 69.2576172,48.6826172 L65.6046875,50.1580078 C64.6820313,50.5296875 64.1869141,51.5333984 64.4470703,52.49375 C67.3777344,63.3291016 75.5634766,62.2017578 75.5634766,63.6136719 C75.5634766,65.3861328 69.3933594,65.6365234 68.8361328,66.19375 C68.2785156,66.7513672 68.8115234,69.4570312 67.5660156,69.9808594 C67.3316406,70.0798828 66.9980469,70.1142578 66.5910156,70.1142578 C65.6529297,70.1142578 64.3257813,69.9306641 62.9277344,69.9306641 C61.7148438,69.9306641 60.4478516,70.06875 59.3341797,70.5828125 C56.3796875,71.9480469 53.5310547,74.4976562 49.9994141,74.4976562 C49.8859375,74.4976562 49.7748047,74.4878906 49.6626953,74.4828125 L49.6626953,77.5427734 C49.7748047,77.5464844 49.8855469,77.5525391 49.9994141,77.5525391 C53.3125,77.5525391 55.9384766,76.0105469 58.2556641,74.6492187 C59.0880859,74.1607422 59.8742188,73.6990234 60.6152344,73.3566406 C61.1552734,73.1072266 61.9115234,72.9859375 62.9277344,72.9859375 C63.5835938,72.9859375 64.2482422,73.0351562 64.890625,73.0826172 C65.4896484,73.1267578 66.0558594,73.1691406 66.5912109,73.1691406 C67.1382813,73.1691406 67.9578125,73.1304687 68.7503906,72.7966797 C69.5863281,72.4451172 70.6927734,71.6570312 71.2167969,69.8960937 C71.3427734,69.471875 71.4177734,69.0509766 71.4693359,68.6589844 C72.5261719,68.4626953 73.8273438,68.2171875 74.9492188,67.8314453 C75.7728516,67.5478516 76.4310547,67.2125 76.9632813,66.80625 C78.0308594,65.9898437 78.6191406,64.8560547 78.6191406,63.6136719 C78.6195312,62.9652344 78.4125,61.3535156 76.4957031,60.4019531 Z" id="Shape" fill="#FFFFFF"></path>
                        </g>
                    </g>
                </g>
            </g>
        </g>
    </g>
</svg>