<?xml version="1.0" encoding="UTF-8"?>
<svg width="100px" height="100px" viewBox="0 0 100 100" version="1.1" xmlns="http://www.w3.org/2000/svg" xmlns:xlink="http://www.w3.org/1999/xlink">
    <!-- Generator: Sketch 42 (36781) - http://www.bohemiancoding.com/sketch -->
    <title>twitter</title>
    <desc>Created with Sketch.</desc>
    <defs></defs>
    <g id="Page-1" stroke="none" stroke-width="1" fill="none" fill-rule="evenodd">
        <g id="01-HOMEPAGE" transform="translate(-740.000000, -2286.000000)" fill-rule="nonzero">
            <g id="FOOTER" transform="translate(0.000000, 2129.000000)">
                <g id="RESEAUX" transform="translate(459.000000, 115.000000)">
                    <g id="twitter" transform="translate(281.000000, 42.000000)">
                        <g id="Capa_1">
                            <g id="Group">
                                <circle id="Oval" fill="#55ACEE" cx="49.6451327" cy="49.6442478" r="49.6442478"></circle>
                                <path d="M80.0539823,35.6778761 C77.9265487,36.6212389 75.6380531,37.259292 73.2380531,37.5442478 C75.6884956,36.0761062 77.5690265,33.7530973 78.4566372,30.980531 C76.1637168,32.340708 73.6230088,33.3274336 70.9212389,33.859292 C68.7566372,31.5539823 65.6725664,30.1132743 62.2575221,30.1132743 C55.7053097,30.1132743 50.3911504,35.4274336 50.3911504,41.979646 C50.3911504,42.9097345 50.4964602,43.8150442 50.7,44.6840708 C40.8380531,44.1893805 32.0938053,39.4654867 26.240708,32.2840708 C25.219469,34.0362832 24.6336283,36.0761062 24.6336283,38.2504425 C24.6336283,42.3663717 26.7300885,46 29.9123894,48.1274336 C27.9681416,48.0663717 26.1371681,47.5327434 24.5380531,46.6415929 C24.5371681,46.6920354 24.5371681,46.7424779 24.5371681,46.7920354 C24.5371681,52.5415929 28.6292035,57.3371681 34.0566372,58.4265487 C33.0619469,58.699115 32.0115044,58.8433628 30.9309735,58.8433628 C30.1646018,58.8433628 29.4221239,58.7699115 28.6982301,58.6318584 C30.2079646,63.3451327 34.5893805,66.7761062 39.7831858,66.8725664 C35.7212389,70.0557522 30.6053097,71.9522124 25.0442478,71.9522124 C24.0884956,71.9522124 23.1415929,71.8964602 22.2150442,71.7858407 C27.4637168,75.1539823 33.7026549,77.1176991 40.4035398,77.1176991 C62.2300885,77.1176991 74.1663717,59.0362832 74.1663717,43.3539823 C74.1663717,42.839823 74.1548673,42.3274336 74.1318584,41.819469 C76.4522124,40.1469027 78.4637168,38.0575221 80.0539823,35.6778761 L80.0539823,35.6778761 Z" id="Shape" fill="#F1F2F2"></path>
                            </g>
                        </g>
                    </g>
                </g>
            </g>
        </g>
    </g>
</svg>