<?xml version="1.0" encoding="UTF-8"?>
<svg width="100px" height="100px" viewBox="0 0 100 100" version="1.1" xmlns="http://www.w3.org/2000/svg" xmlns:xlink="http://www.w3.org/1999/xlink">
    <!-- Generator: Sketch 42 (36781) - http://www.bohemiancoding.com/sketch -->
    <title>youtube</title>
    <desc>Created with Sketch.</desc>
    <defs></defs>
    <g id="Page-1" stroke="none" stroke-width="1" fill="none" fill-rule="evenodd">
        <g id="01-HOMEPAGE" transform="translate(-600.000000, -2286.000000)" fill-rule="nonzero">
            <g id="FOOTER" transform="translate(0.000000, 2129.000000)">
                <g id="RESEAUX" transform="translate(459.000000, 115.000000)">
                    <g id="youtube" transform="translate(141.000000, 42.000000)">
                        <g id="Layer_1">
                            <circle id="Oval" fill="#D42428" cx="49.992827" cy="49.992827" r="49.992827"></circle>
                            <path d="M85.3413502,14.6371308 C104.864768,34.1622363 104.866456,65.8170886 85.3413502,85.3421941 C65.8179325,104.865612 34.1613924,104.866456 14.6362869,85.3421941 L85.3413502,14.6371308 Z" id="Shape" fill="#D42428"></path>
                            <path d="M99.2238397,58.6421941 L65.578692,24.9972574 L62.8647679,27.7111814 L60.1508439,24.9972574 L57.1763713,27.97173 L59.1742616,29.9696203 L58.5221519,30.62173 L53.3413502,25.4409283 L53.1202532,25.6635021 L46.1388186,18.6820675 L43.164346,21.6565401 L43.97827,22.4704641 L42.7831224,23.6656118 L37.7506329,18.6331224 L35.664346,20.7194093 L40.5704641,32.5343882 L38.3609705,41.6054852 L44.4014768,47.6474684 L29.1234177,48.7162447 L28.8921941,75.22827 L53.4780591,99.8440928 C76.514346,98.2078059 95.3240506,80.9774262 99.2238397,58.6421941 Z" id="Shape"></path>
                            <path d="M67.8742616,61.5843882 L64.6487342,61.5843882 L64.664557,59.7120253 C64.664557,58.8791139 65.3474684,58.1995781 66.1833333,58.1995781 L66.3900844,58.1995781 C67.2261603,58.1995781 67.9120253,58.8793249 67.9120253,59.7120253 L67.8742616,61.5843882 Z M55.7814346,57.57173 C54.9660338,57.57173 54.2966245,58.1219409 54.2966245,58.7945148 L54.2966245,67.900211 C54.2966245,68.5727848 54.9660338,69.1198312 55.7814346,69.1198312 C56.6031646,69.1198312 57.2725738,68.5727848 57.2725738,67.900211 L57.2725738,58.7936709 C57.2725738,58.1219409 56.6031646,57.57173 55.7814346,57.57173 Z M75.4162447,52.4793249 L75.4162447,69.8004219 C75.4162447,73.9559072 71.8135021,77.3550633 67.4078059,77.3550633 L34.4818565,77.3550633 C30.0753165,77.3550633 26.4734177,73.9550633 26.4734177,69.8004219 L26.4734177,52.4793249 C26.4734177,48.3238397 30.0755274,44.9232068 34.4818565,44.9232068 L67.4086498,44.9232068 C71.8132911,44.9232068 75.4162447,48.3246835 75.4162447,52.4793249 Z M36.6772152,71.6816456 L36.6757384,53.435443 L40.756962,53.4369198 L40.756962,50.7324895 L29.8765823,50.7158228 L29.8765823,53.3729958 L33.2734177,53.3833333 L33.2734177,71.6808017 L36.6772152,71.6808017 L36.6772152,71.6816456 L36.6772152,71.6816456 Z M48.9128692,56.1540084 L45.5097046,56.1540084 L45.5097046,65.8968354 C45.5097046,67.3067511 45.5940928,68.0116034 45.5050633,68.2594937 C45.2272152,69.0149789 43.9831224,69.8170886 43.4991561,68.3415612 C43.4170886,68.0827004 43.4896624,67.3027426 43.4881857,65.9630802 L43.4723629,56.1531646 L40.0881857,56.1531646 L40.1008439,65.8082278 C40.1023207,67.2883966 40.0668776,68.3919831 40.1118143,68.8940928 C40.1947257,69.7797468 40.1639241,70.8130802 40.9873418,71.4012658 C42.5172996,72.5056962 45.4521097,71.2371308 46.1862869,69.6605485 L46.1799578,71.6719409 L48.9120253,71.6759494 L48.9120253,56.1540084 L48.9128692,56.1540084 Z M59.7995781,67.3105485 L59.7932489,59.2010549 C59.7900844,56.1097046 57.478692,54.2586498 54.3383966,56.7594937 L54.3525316,50.7299578 L50.9525316,50.735443 L50.935865,71.5449367 L53.7312236,71.5037975 L53.985443,70.2067511 C57.5590717,73.4877637 59.8056962,71.2411392 59.7995781,67.3105485 Z M70.4516878,66.2362869 L67.8987342,66.249789 C67.8987342,66.3516878 67.8940928,66.4677215 67.8924051,66.5955696 L67.8924051,68.0196203 C67.8924051,68.7814346 67.2632911,69.4018987 66.4983122,69.4018987 L65.9985232,69.4018987 C65.2320675,69.4018987 64.6029536,68.7814346 64.6029536,68.0196203 L64.6029536,67.8618143 L64.6029536,66.2940928 L64.6029536,64.2732068 L70.4462025,64.2732068 L70.4462025,62.0738397 C70.4462025,60.4675105 70.4044304,58.8609705 70.27173,57.9421941 C69.8542194,55.0348101 65.7744726,54.5738397 63.7126582,56.0618143 C63.0654008,56.5267932 62.5719409,57.1487342 62.2831224,57.985654 C61.9934599,58.82173 61.849789,59.9622363 61.849789,61.4132911 L61.849789,66.2483122 C61.8518987,74.285865 71.614346,73.149789 70.4516878,66.2362869 Z M57.3618143,39.9839662 C57.5362869,40.4118143 57.8086498,40.7567511 58.1803797,41.0187764 C58.5443038,41.2744726 59.0132911,41.4048523 59.5727848,41.4048523 C60.0630802,41.4048523 60.4978903,41.2721519 60.8753165,40.9983122 C61.2533755,40.7259494 61.5723629,40.3202532 61.8312236,39.7772152 L61.7664557,41.1128692 L65.5594937,41.1128692 L65.5594937,24.9805907 L62.5732068,24.9805907 L62.5732068,37.5360759 C62.5732068,38.2149789 62.0120253,38.771519 61.3274262,38.771519 C60.6476793,38.771519 60.0848101,38.2149789 60.0848101,37.5360759 L60.0848101,24.9805907 L56.9689873,24.9805907 L56.9689873,35.8609705 C56.9689873,37.2472574 56.9934599,38.171519 57.0352321,38.6405063 C57.0799578,39.1061181 57.1864979,39.5521097 57.3618143,39.9839662 Z M45.8666667,30.8727848 C45.8666667,29.3240506 45.9962025,28.1154008 46.2518987,27.2438819 C46.5092827,26.3746835 46.9748945,25.6761603 47.6459916,25.1504219 C48.3168776,24.6206751 49.1759494,24.3563291 50.2179325,24.3563291 C51.0949367,24.3563291 51.8472574,24.5291139 52.4763713,24.8662447 C53.1054852,25.2056962 53.5940928,25.6453586 53.9303797,26.1892405 C54.2761603,26.7348101 54.5082278,27.2959916 54.6337553,27.8698312 C54.7616034,28.4508439 54.8232068,29.3295359 54.8232068,30.5111814 L54.8232068,34.5915612 C54.8232068,36.0881857 54.7632911,37.1886076 54.6472574,37.8881857 C54.5327004,38.5892405 54.2850211,39.2388186 53.9012658,39.8474684 C53.5223629,40.4506329 53.0329114,40.9012658 52.4392405,41.1886076 C51.8409283,41.4799578 51.1565401,41.6219409 50.3812236,41.6219409 C49.5177215,41.6219409 48.7881857,41.5027426 48.1890295,41.2525316 C47.5875527,41.0046414 47.12173,40.6303797 46.7909283,40.1339662 C46.4546414,39.6367089 46.2202532,39.0312236 46.078903,38.3255274 C45.9352321,37.6189873 45.8672996,36.5588608 45.8672996,35.1443038 L45.8672996,30.8727848 L45.8666667,30.8727848 L45.8666667,30.8727848 Z M48.8362869,37.2818565 C48.8362869,38.1943038 49.5175105,38.9402954 50.3455696,38.9402954 C51.1736287,38.9402954 51.850211,38.1951477 51.850211,37.2818565 L51.850211,28.6932489 C51.850211,27.7808017 51.1736287,27.0348101 50.3455696,27.0348101 C49.5175105,27.0348101 48.8362869,27.7799578 48.8362869,28.6932489 L48.8362869,37.2818565 Z M38.3379747,41.6179325 L41.9179325,41.6179325 L41.921097,29.2449367 L46.15,18.6455696 L42.235443,18.6455696 L39.9871308,26.5198312 L37.7065401,18.6251055 L33.8337553,18.6251055 L38.3324895,29.2521097 L38.3379747,41.6179325 Z" id="Shape" fill="#FFFFFF"></path>
                        </g>
                    </g>
                </g>
            </g>
        </g>
    </g>
</svg>